<?xml version="1.0" standalone="no"?>
<!DOCTYPE svg PUBLIC "-//W3C//DTD SVG 20010904//EN"
 "http://www.w3.org/TR/2001/REC-SVG-20010904/DTD/svg10.dtd">
<svg version="1.0" xmlns="http://www.w3.org/2000/svg"
 width="72.000000pt" height="72.000000pt" viewBox="0 0 72.000000 72.000000"
 preserveAspectRatio="xMidYMid meet">

<g transform="translate(0.000000,72.000000) scale(0.100000,-0.100000)"
fill="#000000" stroke="none">
<path d="M0 360 l0 -360 360 0 360 0 0 360 0 360 -360 0 -360 0 0 -360z m481
167 c15 -11 14 -16 -12 -47 -37 -44 -58 -31 -38 24 14 38 24 43 50 23z m-234
-243 c1 -5 -13 -20 -33 -33 -30 -21 -37 -22 -45 -10 -16 25 -10 38 24 48 36
10 49 9 54 -5z m289 0 c27 -7 28 -8 14 -35 -11 -19 -12 -19 -45 7 -34 25 -39
51 -8 40 8 -4 26 -9 39 -12z m-256 -42 c0 -4 -9 -22 -20 -40 -17 -28 -23 -31
-40 -22 -28 15 -25 32 12 57 29 20 48 22 48 5z m217 -8 c33 -25 34 -27 17 -45
-9 -10 -21 -19 -25 -19 -13 0 -51 69 -44 80 9 15 14 13 52 -16z"/>
</g>
</svg>
